<svg xmlns="http://www.w3.org/2000/svg" width="24" height="24" fill="black" viewBox="0 0 24 24">
<path d="M12 2.2c3.2 0 3.6 0 4.9.1 1.2.1 2 .2 2.5.4.6.2 1 .5 1.5 1s.8.9 1 1.5c.2.5.3 1.3.4 2.5.1 1.3.1 1.7.1 4.9s0 3.6-.1 4.9c-.1 1.2-.2 2-.4 2.5-.2.6-.5 1-1 1.5s-.9.8-1.5 1c-.5.2-1.3.3-2.5.4-1.3.1-1.7.1-4.9.1s-3.6 0-4.9-.1c-1.2-.1-2-.2-2.5-.4-.6-.2-1-.5-1.5-1s-.8-.9-1-1.5c-.2-.5-.3-1.3-.4-2.5C2.2 15.6 2.2 15.2 2.2 12s0-3.6.1-4.9c.1-1.2.2-2 .4-2.5.2-.6.5-1 1-1.5s.9-.8 1.5-1c.5-.2 1.3-.3 2.5-.4C8.4 2.2 8.8 2.2 12 2.2M12 0C8.7 0 8.3 0 7 .1 5.7.2 4.8.4 4 .7c-.9.3-1.7.7-2.5 1.5C.7 3 .3 3.7 0 4.6.4 5.4.2 6.3.1 7.6 0 8.9 0 9.3 0 12s0 3.1.1 4.4c.1 1.3.3 2.2.6 3 .3.9.7 1.7 1.5 2.5.8.8 1.6 1.2 2.5 1.5.9.3 1.7.5 3 .6 1.3.1 1.7.1 4.4.1s3.1 0 4.4-.1c1.3-.1 2.2-.3 3-.6.9-.3 1.7-.7 2.5-1.5.8-.8 1.2-1.6 1.5-2.5.3-.9.5-1.7.6-3 .1-1.3.1-1.7.1-4.4s0-3.1-.1-4.4c-.1-1.3-.3-2.2-.6-3-.3-.9-.7-1.7-1.5-2.5C20.7.7 19.9.3 19 .0c-.9-.3-1.7-.5-3-.6C15.1 0 14.7 0 12 0zM12 5.8a6.2 6.2 0 1 0 0 12.4 6.2 6.2 0 0 0 0-12.4zm0 10.2a4 4 0 1 1 0-8.2 4 4 0 0 1 0 8.2zm6.4-11.8a1.4 1.4 0 1 1-2.8 0 1.4 1.4 0 0 1 2.8 0z"/>
</svg>