<svg xmlns="http://www.w3.org/2000/svg" width="24" height="24" fill="black" viewBox="0 0 24 24">
<path d="M12 0C5.4 0 0 5.4 0 12c0 1.4.2 2.7.6 3.9L0 24l8.1-2.1c1.2.4 2.5.6 3.9.6 6.6 0 12-5.4 12-12S18.6 0 12 0zM6.1 10.5c.1-.2.4-.3.6-.2l1.8.7c.2.1.3.4.2.6s-.4.3-.6.2l-1.8-.7c-.2-.1-.3-.4-.2-.6zm2.1 4.8c-.1.2-.4.3-.6.2s-.3-.4-.2-.6l.7-1.8c.1-.2.4-.3.6-.2s.3.4.2.6l-.7 1.8zm7.3.2c-.2.1-.5 0-.6-.2l-.7-1.8c-.1-.2 0-.5.2-.6s.5 0 .6.2l.7 1.8c.1.2 0 .5-.2.6zm2.1-5c-.1.2-.4.3-.6.2l-1.8-.7c-.2-.1-.3-.4-.2-.6s.4-.3.6-.2l1.8.7c.2.1.3.4.2.6z"/>
</svg>